{"title":"Decay (HD).2015.WEBRip.RR.mp4","uid":14246497,"size":3033444050,"categoryP":"video","categoryS":"movies","magnet":"?xt=urn:btih:684e6eed91425a89788ee9ac2e5182f0c400070a&amp;dn=Decay+%28HD%29.2015.WEBRip.RR.mp4&amp;tr=udp%3A%2F%2Ftracker.leechers-paradise.org%3A6969&amp;tr=udp%3A%2F%2Fzer0day.ch%3A1337&amp;tr=udp%3A%2F%2Fopen.demonii.com%3A1337&amp;tr=udp%3A%2F%2Ftracker.coppersurfer.tk%3A6969&amp;tr=udp%3A%2F%2Fexodus.desync.com%3A6969","seeders":0,"leechers":0,"uploader":"RadioResearch","files":1,"time":1460160230,"description":"Jonathan is a middle-aged groundskeeper at a local theme park and suffers from a debilitating case of OCD. One day, his daily routine is disrupted by a surprise visitor in his basement: a beautiful young woman who, through a jarring turn of events, ends up dead. Jonathan panics and chooses not to report the dead girl. Instead, he invites her to dinner. Jonathan is happy to have a friend, until the police start closing in, and his mind, and the body of the girl, begins to decay.\r\n\r\nScreencaps:  http://i.imgur.com/cc4mEPv.jpg\r\n\r\nPoster:  http://i.imgur.com/cT2AnJP.jpg\r\n\r\nThanks to iTunes! ;-)\r\n\r\nEnjoy and seed!\r\n\r\nRR\r\n\r\nVideo\r\nID                                       : 2\r\nFormat                                   : AVC\r\nFormat/Info                              : Advanced Video Codec\r\nFormat profile                           :   \r\nFormat settings, CABAC                   : No\r\nFormat settings, ReFrames                : 2 frames\r\nFormat settings, GOP                     : M=2, N=90\r\nCodec ID                                 : avc1\r\nCodec ID/Info                            : Advanced Video Coding\r\nDuration                                 : 1h 38mn\r\nDuration_LastFrame                       : -34ms\r\nBit rate                                 : 3 976 Kbps\r\nWidth                                    : 1 280 pixels\r\nHeight                                   : 536 pixels\r\nDisplay aspect ratio                     : 2.40:1\r\nFrame rate mode                          : Constant\r\nFrame rate                               : 23.976 (23976/1000) fps\r\nColor space                              : YUV\r\nChroma subsampling                       : 4:2:0\r\nBit depth                                : 8 bits\r\nScan type                                : Progressive\r\nBits/(Pixel*Frame)                       : 0.242\r\nStream size                              : 2.74 GiB (97%)\r\nLanguage                                 : English\r\nEncoded date                             : UTC 2016-04-08 16:13:45\r\nTagged date                              : UTC 2016-04-08 16:14:40\r\nColor range                              : Limited\r\nColor primaries                          : BT.709\r\nTransfer characteristics                 : BT.709\r\nMatrix coefficients                      : BT.709\r\n\r\nAudio\r\nID                                       : 1\r\nFormat                                   : AAC\r\nFormat/Info                              : Advanced Audio Codec\r\nFormat profile                           : LC\r\nCodec ID                                 : 40\r\nDuration                                 : 1h 38mn\r\nDuration_LastFrame                       : -13ms\r\nBit rate mode                            : Variable\r\nBit rate                                 : 126 Kbps\r\nMaximum bit rate                         : 221 Kbps\r\nChannel(s)                               : 2 channels\r\nChannel positions                        : Front: L R\r\nSampling rate                            : 48.0 KHz\r\nFrame rate                               : 46.875 fps (1024 spf)\r\nCompression mode                         : Lossy\r\nStream size                              : 88.5 MiB (3%)\r\nLanguage                                 : English\r\nDefault                                  : Yes\r\nAlternate group                          : 1\r\nEncoded date                             : UTC 2016-04-08 16:10:00\r\nTagged date                              : UTC 2016-04-08 16:13:45\r\nMenus                                    : 4\r\n\r\nText\r\nID                                       : 3-CC1\r\nFormat                                   : EIA-608\r\nMuxing mode                              : Final Cut\r\nCodec ID                                 : c608\r\nDuration                                 : 1h 34mn\r\nBit rate mode                            : Constant\r\nStream size                              : 0.00 Byte (0%)\r\nLanguage                                 : English\r\nDefault                                  : No\r\nForced                                   : No\r\nAlternate group                          : 2\r\nEncoded date                             : UTC 2016-04-08 16:14:40\r\nTagged date                              : UTC 2016-04-08 16:14:43\r\n\r\nMenu\r\nID                                       : 4\r\nCodec ID                                 : text\r\nDuration                                 : 1h 38mn\r\nEncoded date                             : UTC 2016-04-08 16:14:44\r\nTagged date                              : UTC 2016-04-08 16:14:44\r\nMenu For                                 : 1\r\n00:00:00.000                             : 1\r\n00:10:37.000                             : 2\r\n00:22:56.000                             : 3\r\n00:31:47.000                             : 4\r\n00:43:55.000                             : 5\r\n00:52:10.000                             : 6\r\n01:01:46.000                             : 7\r\n01:11:53.000                             : 8\r\n01:20:24.000                             : 9\r\n01:34:30.000                             : 10\r\nBit rate mode                            : VBR","torrent":{"xt":"urn:btih:684e6eed91425a89788ee9ac2e5182f0c400070a","amp;dn":"Decay+%28HD%29.2015.WEBRip.RR.mp4","amp;tr":["udp%3A%2F%2Ftracker.leechers-paradise.org%3A6969","udp%3A%2F%2Fzer0day.ch%3A1337","udp%3A%2F%2Fopen.demonii.com%3A1337","udp%3A%2F%2Ftracker.coppersurfer.tk%3A6969","udp%3A%2F%2Fexodus.desync.com%3A6969"],"infoHash":"684e6eed91425a89788ee9ac2e5182f0c400070a","infoHashBuffer":{"type":"Buffer","data":[104,78,110,237,145,66,90,137,120,142,233,172,46,81,130,240,196,0,7,10]},"announce":[],"urlList":[]}}